<svg width="320" height="242" viewBox="0 0 320 242" fill="none" xmlns="http://www.w3.org/2000/svg">
<g clip-path="url(#clip0_0_6)">
<path d="M0 0H320V200H0V0Z" fill="#006AA7"/>
<path d="M0 80H100V0H140V80H320V120H140V200H100V120H0V80Z" fill="#FECC00"/>
</g>
<path d="M15.776 208.368V227.84C15.776 228.672 16.032 229.264 16.544 229.616C17.0667 229.957 17.7387 230.128 18.56 230.128C19.072 230.128 19.5573 230.075 20.016 229.968C20.4747 229.861 20.9333 229.717 21.392 229.536L22.112 231.504C21.6533 231.728 21.0827 231.925 20.4 232.096C19.728 232.277 18.9653 232.368 18.112 232.368C16.6187 232.368 15.408 231.957 14.48 231.136C13.552 230.304 13.088 229.157 13.088 227.696V210.496H7.92V208.368H15.776ZM40.4675 228.32C40.4675 228.992 40.5795 229.483 40.8035 229.792C41.0275 230.101 41.3742 230.331 41.8435 230.48L41.1875 232.368C40.4622 232.272 39.8275 232.043 39.2835 231.68C38.7395 231.307 38.3448 230.747 38.0995 230C37.4915 230.779 36.7342 231.371 35.8275 231.776C34.9208 232.171 33.9182 232.368 32.8195 232.368C31.1342 232.368 29.8062 231.893 28.8355 230.944C27.8648 229.995 27.3795 228.736 27.3795 227.168C27.3795 225.429 28.0568 224.096 29.4115 223.168C30.7662 222.24 32.7235 221.776 35.2835 221.776H37.7635V220.368C37.7635 219.152 37.4062 218.293 36.6915 217.792C35.9875 217.28 35.0062 217.024 33.7475 217.024C33.1928 217.024 32.5422 217.093 31.7955 217.232C31.0488 217.36 30.2382 217.579 29.3635 217.888L28.6595 215.856C29.6942 215.472 30.6648 215.2 31.5715 215.04C32.4782 214.88 33.3422 214.8 34.1635 214.8C36.2648 214.8 37.8382 215.291 38.8835 216.272C39.9395 217.243 40.4675 218.565 40.4675 220.24V228.32ZM33.5075 230.32C34.3395 230.32 35.1342 230.112 35.8915 229.696C36.6488 229.269 37.2728 228.683 37.7635 227.936V223.6H35.3315C33.4755 223.6 32.1635 223.92 31.3955 224.56C30.6382 225.2 30.2595 226.059 30.2595 227.136C30.2595 228.181 30.5262 228.976 31.0595 229.52C31.6035 230.053 32.4195 230.32 33.5075 230.32ZM31.2195 211.248C30.7075 211.248 30.2862 211.088 29.9555 210.768C29.6248 210.448 29.4595 210.043 29.4595 209.552C29.4595 209.051 29.6248 208.64 29.9555 208.32C30.2862 207.989 30.7075 207.824 31.2195 207.824C31.6995 207.824 32.1048 207.989 32.4355 208.32C32.7768 208.64 32.9475 209.051 32.9475 209.552C32.9475 210.043 32.7768 210.448 32.4355 210.768C32.1048 211.088 31.6995 211.248 31.2195 211.248ZM37.8115 211.248C37.3208 211.248 36.9102 211.088 36.5795 210.768C36.2488 210.448 36.0835 210.043 36.0835 209.552C36.0835 209.051 36.2488 208.64 36.5795 208.32C36.9102 207.989 37.3208 207.824 37.8115 207.824C38.3128 207.824 38.7288 207.989 39.0595 208.32C39.4008 208.64 39.5715 209.051 39.5715 209.552C39.5715 210.043 39.4008 210.448 39.0595 210.768C38.7288 211.088 38.3128 211.248 37.8115 211.248ZM47.751 232V229.936H50.375V217.216H47.751V215.152H52.423L52.919 219.136C53.5697 217.749 54.359 216.677 55.287 215.92C56.215 215.163 57.4417 214.784 58.967 214.784C59.4363 214.784 59.8523 214.821 60.215 214.896C60.5883 214.96 60.967 215.045 61.351 215.152L60.567 217.552C60.215 217.456 59.895 217.387 59.607 217.344C59.319 217.291 58.9883 217.264 58.615 217.264C57.3243 217.264 56.215 217.723 55.287 218.64C54.359 219.557 53.6177 220.944 53.063 222.8V229.936H56.487V232H47.751ZM58.759 220.848V217.184L59.031 215.152H61.351L60.967 220.848H58.759ZM78.8425 228.32C78.8425 228.992 78.9545 229.483 79.1785 229.792C79.4025 230.101 79.7492 230.331 80.2185 230.48L79.5625 232.368C78.8372 232.272 78.2025 232.043 77.6585 231.68C77.1145 231.307 76.7198 230.747 76.4745 230C75.8665 230.779 75.1092 231.371 74.2025 231.776C73.2958 232.171 72.2932 232.368 71.1945 232.368C69.5092 232.368 68.1812 231.893 67.2105 230.944C66.2398 229.995 65.7545 228.736 65.7545 227.168C65.7545 225.429 66.4318 224.096 67.7865 223.168C69.1412 222.24 71.0985 221.776 73.6585 221.776H76.1385V220.368C76.1385 219.152 75.7812 218.293 75.0665 217.792C74.3625 217.28 73.3812 217.024 72.1225 217.024C71.5678 217.024 70.9172 217.093 70.1705 217.232C69.4238 217.36 68.6132 217.579 67.7385 217.888L67.0345 215.856C68.0692 215.472 69.0398 215.2 69.9465 215.04C70.8532 214.88 71.7172 214.8 72.5385 214.8C74.6398 214.8 76.2132 215.291 77.2585 216.272C78.3145 217.243 78.8425 218.565 78.8425 220.24V228.32ZM71.8825 230.32C72.7145 230.32 73.5092 230.112 74.2665 229.696C75.0238 229.269 75.6478 228.683 76.1385 227.936V223.6H73.7065C71.8505 223.6 70.5385 223.92 69.7705 224.56C69.0132 225.2 68.6345 226.059 68.6345 227.136C68.6345 228.181 68.9012 228.976 69.4345 229.52C69.9785 230.053 70.7945 230.32 71.8825 230.32ZM110.882 230.144C112.172 230.144 113.191 229.904 113.938 229.424C114.695 228.933 115.074 228.283 115.074 227.472C115.074 226.96 114.978 226.517 114.786 226.144C114.604 225.771 114.226 225.435 113.65 225.136C113.074 224.837 112.188 224.539 110.994 224.24C109.831 223.952 108.818 223.621 107.954 223.248C107.1 222.864 106.434 222.368 105.954 221.76C105.484 221.152 105.25 220.363 105.25 219.392C105.25 218.443 105.516 217.627 106.049 216.944C106.594 216.251 107.346 215.723 108.306 215.36C109.266 214.987 110.38 214.8 111.65 214.8C113.004 214.8 114.183 214.981 115.186 215.344C116.199 215.696 117.058 216.133 117.762 216.656L116.578 218.48C115.938 218.043 115.234 217.685 114.466 217.408C113.698 217.12 112.77 216.976 111.682 216.976C110.359 216.976 109.42 217.184 108.866 217.6C108.311 218.005 108.034 218.533 108.034 219.184C108.034 219.675 108.167 220.085 108.434 220.416C108.711 220.736 109.175 221.029 109.826 221.296C110.476 221.552 111.372 221.835 112.514 222.144C113.612 222.432 114.567 222.779 115.378 223.184C116.199 223.589 116.839 224.123 117.298 224.784C117.756 225.445 117.986 226.299 117.986 227.344C117.986 228.539 117.644 229.509 116.962 230.256C116.279 230.992 115.394 231.531 114.306 231.872C113.228 232.203 112.087 232.368 110.882 232.368C109.356 232.368 108.055 232.149 106.978 231.712C105.911 231.264 105.015 230.725 104.289 230.096L105.826 228.32C106.487 228.864 107.244 229.307 108.098 229.648C108.962 229.979 109.89 230.144 110.882 230.144ZM132.869 215.152V229.872H137.621V232H124.981V229.872H130.181V217.28H125.141V215.152H132.869ZM130.725 207.264C131.322 207.264 131.797 207.445 132.149 207.808C132.512 208.171 132.693 208.613 132.693 209.136C132.693 209.68 132.512 210.139 132.149 210.512C131.797 210.875 131.322 211.056 130.725 211.056C130.16 211.056 129.696 210.875 129.333 210.512C128.97 210.139 128.789 209.68 128.789 209.136C128.789 208.613 128.97 208.171 129.333 207.808C129.696 207.445 130.16 207.264 130.725 207.264ZM157.225 213.36L158.057 215.888C157.342 216.112 156.579 216.251 155.769 216.304C154.958 216.357 154.078 216.384 153.129 216.384C154.099 216.832 154.83 217.413 155.321 218.128C155.811 218.832 156.057 219.664 156.057 220.624C156.057 221.733 155.806 222.72 155.305 223.584C154.803 224.448 154.078 225.125 153.129 225.616C152.19 226.107 151.054 226.352 149.72 226.352C149.155 226.352 148.681 226.325 148.297 226.272C147.923 226.219 147.561 226.139 147.209 226.032C146.953 226.203 146.739 226.437 146.569 226.736C146.409 227.035 146.329 227.344 146.329 227.664C146.329 228.069 146.489 228.405 146.809 228.672C147.129 228.939 147.721 229.072 148.585 229.072H151.625C152.755 229.072 153.769 229.275 154.665 229.68C155.571 230.085 156.281 230.629 156.793 231.312C157.315 231.995 157.576 232.773 157.576 233.648C157.576 235.301 156.873 236.571 155.465 237.456C154.067 238.341 152.089 238.784 149.529 238.784C147.737 238.784 146.323 238.597 145.289 238.224C144.254 237.861 143.513 237.301 143.065 236.544C142.627 235.797 142.409 234.853 142.409 233.712H144.841C144.841 234.363 144.969 234.901 145.225 235.328C145.481 235.755 145.945 236.069 146.617 236.272C147.289 236.485 148.254 236.592 149.513 236.592C150.75 236.592 151.758 236.485 152.537 236.272C153.326 236.069 153.907 235.76 154.281 235.344C154.665 234.939 154.857 234.432 154.857 233.824C154.857 233.024 154.494 232.421 153.769 232.016C153.043 231.611 152.137 231.408 151.049 231.408H148.041C146.59 231.408 145.518 231.088 144.825 230.448C144.142 229.808 143.801 229.072 143.801 228.24C143.801 227.696 143.955 227.168 144.265 226.656C144.585 226.144 145.049 225.691 145.657 225.296C144.686 224.784 143.971 224.149 143.513 223.392C143.054 222.635 142.825 221.717 142.825 220.64C142.825 219.499 143.107 218.491 143.673 217.616C144.238 216.731 145.027 216.037 146.041 215.536C147.054 215.035 148.222 214.784 149.545 214.784C150.963 214.773 152.115 214.715 153.001 214.608C153.886 214.491 154.643 214.325 155.273 214.112C155.913 213.899 156.563 213.648 157.225 213.36ZM149.545 216.752C148.19 216.752 147.187 217.12 146.537 217.856C145.897 218.581 145.577 219.509 145.577 220.64C145.577 221.781 145.907 222.72 146.569 223.456C147.23 224.192 148.243 224.56 149.609 224.56C150.803 224.56 151.71 224.213 152.329 223.52C152.958 222.827 153.273 221.861 153.273 220.624C153.273 219.355 152.958 218.395 152.329 217.744C151.71 217.083 150.782 216.752 149.545 216.752ZM187.632 230.144C188.922 230.144 189.941 229.904 190.688 229.424C191.445 228.933 191.824 228.283 191.824 227.472C191.824 226.96 191.728 226.517 191.536 226.144C191.354 225.771 190.976 225.435 190.4 225.136C189.824 224.837 188.938 224.539 187.744 224.24C186.581 223.952 185.568 223.621 184.704 223.248C183.85 222.864 183.184 222.368 182.704 221.76C182.234 221.152 182 220.363 182 219.392C182 218.443 182.266 217.627 182.799 216.944C183.344 216.251 184.096 215.723 185.056 215.36C186.016 214.987 187.13 214.8 188.4 214.8C189.754 214.8 190.933 214.981 191.936 215.344C192.949 215.696 193.808 216.133 194.512 216.656L193.328 218.48C192.688 218.043 191.984 217.685 191.216 217.408C190.448 217.12 189.52 216.976 188.432 216.976C187.109 216.976 186.17 217.184 185.616 217.6C185.061 218.005 184.784 218.533 184.784 219.184C184.784 219.675 184.917 220.085 185.184 220.416C185.461 220.736 185.925 221.029 186.576 221.296C187.226 221.552 188.122 221.835 189.264 222.144C190.362 222.432 191.317 222.779 192.128 223.184C192.949 223.589 193.589 224.123 194.048 224.784C194.506 225.445 194.736 226.299 194.736 227.344C194.736 228.539 194.394 229.509 193.712 230.256C193.029 230.992 192.144 231.531 191.056 231.872C189.978 232.203 188.837 232.368 187.632 232.368C186.106 232.368 184.805 232.149 183.728 231.712C182.661 231.264 181.765 230.725 181.039 230.096L182.576 228.32C183.237 228.864 183.994 229.307 184.848 229.648C185.712 229.979 186.64 230.144 187.632 230.144ZM215.139 215.152L209.011 232H205.891L199.811 215.152H202.659L207.539 229.552L212.355 215.152H215.139ZM222.391 224.528C222.444 225.829 222.695 226.896 223.143 227.728C223.591 228.549 224.183 229.157 224.919 229.552C225.655 229.936 226.455 230.128 227.319 230.128C228.183 230.128 228.961 230 229.655 229.744C230.359 229.488 231.079 229.109 231.815 228.608L233.079 230.384C232.289 231.003 231.388 231.488 230.375 231.84C229.372 232.192 228.343 232.368 227.287 232.368C225.655 232.368 224.263 232 223.111 231.264C221.959 230.528 221.079 229.504 220.471 228.192C219.873 226.869 219.575 225.339 219.575 223.6C219.575 221.893 219.879 220.379 220.487 219.056C221.095 217.733 221.948 216.693 223.047 215.936C224.145 215.179 225.441 214.8 226.935 214.8C228.353 214.8 229.575 215.136 230.599 215.808C231.623 216.469 232.407 217.419 232.951 218.656C233.505 219.883 233.783 221.349 233.783 223.056C233.783 223.344 233.777 223.616 233.767 223.872C233.756 224.117 233.74 224.336 233.719 224.528H222.391ZM226.967 217.008C225.719 217.008 224.673 217.451 223.831 218.336C222.999 219.221 222.524 220.592 222.407 222.448H231.191C231.159 220.645 230.764 219.291 230.007 218.384C229.249 217.467 228.236 217.008 226.967 217.008ZM239.466 232V215.152H241.754L241.962 217.488C242.645 216.624 243.498 215.963 244.522 215.504C245.557 215.035 246.559 214.8 247.53 214.8C249.183 214.8 250.383 215.237 251.13 216.112C251.887 216.987 252.266 218.203 252.266 219.76V232H249.578V221.744C249.578 220.592 249.514 219.664 249.386 218.96C249.258 218.245 248.991 217.728 248.586 217.408C248.181 217.077 247.551 216.912 246.698 216.912C246.037 216.912 245.413 217.056 244.826 217.344C244.25 217.632 243.733 217.995 243.274 218.432C242.826 218.859 242.453 219.291 242.154 219.728V232H239.466ZM264.382 230.144C265.672 230.144 266.691 229.904 267.438 229.424C268.195 228.933 268.574 228.283 268.574 227.472C268.574 226.96 268.478 226.517 268.286 226.144C268.104 225.771 267.726 225.435 267.15 225.136C266.574 224.837 265.688 224.539 264.494 224.24C263.331 223.952 262.318 223.621 261.454 223.248C260.6 222.864 259.934 222.368 259.454 221.76C258.984 221.152 258.75 220.363 258.75 219.392C258.75 218.443 259.016 217.627 259.549 216.944C260.094 216.251 260.846 215.723 261.806 215.36C262.766 214.987 263.88 214.8 265.15 214.8C266.504 214.8 267.683 214.981 268.686 215.344C269.699 215.696 270.558 216.133 271.262 216.656L270.078 218.48C269.438 218.043 268.734 217.685 267.966 217.408C267.198 217.12 266.27 216.976 265.182 216.976C263.859 216.976 262.92 217.184 262.366 217.6C261.811 218.005 261.534 218.533 261.534 219.184C261.534 219.675 261.667 220.085 261.934 220.416C262.211 220.736 262.675 221.029 263.326 221.296C263.976 221.552 264.872 221.835 266.014 222.144C267.112 222.432 268.067 222.779 268.878 223.184C269.699 223.589 270.339 224.123 270.798 224.784C271.256 225.445 271.486 226.299 271.486 227.344C271.486 228.539 271.144 229.509 270.462 230.256C269.779 230.992 268.894 231.531 267.806 231.872C266.728 232.203 265.587 232.368 264.382 232.368C262.856 232.368 261.555 232.149 260.478 231.712C259.411 231.264 258.515 230.725 257.789 230.096L259.326 228.32C259.987 228.864 260.744 229.307 261.598 229.648C262.462 229.979 263.39 230.144 264.382 230.144ZM291.953 215.152L284.369 222.736L292.833 232H289.297L281.009 222.8L288.465 215.152H291.953ZM280.705 208.032V232H278.017V208.368L280.705 208.032ZM309.093 228.32C309.093 228.992 309.205 229.483 309.429 229.792C309.653 230.101 309.999 230.331 310.469 230.48L309.812 232.368C309.087 232.272 308.453 232.043 307.909 231.68C307.365 231.307 306.97 230.747 306.725 230C306.117 230.779 305.359 231.371 304.453 231.776C303.546 232.171 302.543 232.368 301.445 232.368C299.759 232.368 298.431 231.893 297.461 230.944C296.49 229.995 296.005 228.736 296.005 227.168C296.005 225.429 296.682 224.096 298.036 223.168C299.391 222.24 301.349 221.776 303.909 221.776H306.389V220.368C306.389 219.152 306.031 218.293 305.317 217.792C304.613 217.28 303.631 217.024 302.373 217.024C301.818 217.024 301.167 217.093 300.421 217.232C299.674 217.36 298.863 217.579 297.989 217.888L297.285 215.856C298.319 215.472 299.29 215.2 300.197 215.04C301.103 214.88 301.967 214.8 302.789 214.8C304.89 214.8 306.463 215.291 307.509 216.272C308.565 217.243 309.093 218.565 309.093 220.24V228.32ZM302.133 230.32C302.965 230.32 303.759 230.112 304.517 229.696C305.274 229.269 305.898 228.683 306.389 227.936V223.6H303.957C302.101 223.6 300.789 223.92 300.021 224.56C299.263 225.2 298.885 226.059 298.885 227.136C298.885 228.181 299.151 228.976 299.685 229.52C300.229 230.053 301.045 230.32 302.133 230.32Z" fill="white"/>
<defs>
<clipPath id="clip0_0_6">
<rect width="320" height="200" fill="white"/>
</clipPath>
</defs>
</svg>
